{"accessors":[{"bufferView":1,"componentType":5126,"count":186,"max":[0.07500000298023224,0.0024999999441206455,0.0024999999441206455],"min":[-0.07500000298023224,-0.0024999999441206455,-0.0024999999441206455],"type":"VEC3"},{"bufferView":1,"byteOffset":2232,"componentType":5126,"count":186,"max":[1,1,0.9993915557861328],"min":[-1,-0.9993915557861328,-0.9993915557861328],"type":"VEC3"},{"bufferView":2,"componentType":5126,"count":186,"max":[0,0.9993916153907776,1,1],"min":[0,-0.9993916153907776,-1,-1],"type":"VEC4"},{"bufferView":0,"componentType":5125,"count":540,"max":[185],"min":[0],"type":"SCALAR"},{"bufferView":1,"byteOffset":4464,"componentType":5126,"count":30227,"max":[0,0.03359000012278557,0.03319000080227852],"min":[-0.04766999930143356,-0.03333999961614609,-0.03432000055909157],"type":"VEC3"},{"bufferView":1,"byteOffset":367188,"componentType":5126,"count":30227,"max":[1,0.9999939799308777,0.9999988675117493],"min":[-1,-0.9998074173927307,-0.9998674988746643],"type":"VEC3"},{"bufferView":2,"byteOffset":2976,"componentType":5126,"count":30227,"max":[0.9844284653663635,1,1,1],"min":[-0.9601046442985535,-0.999998927116394,-0.9824307560920715,-1],"type":"VEC4"},{"bufferView":0,"byteOffset":2160,"componentType":5125,"count":150942,"max":[30226],"min":[0],"type":"SCALAR"},{"bufferView":1,"byteOffset":729912,"componentType":5126,"count":186,"max":[0.002580000087618828,0.05000000074505806,0.0024999999441206455],"min":[-0.002420000033453107,-0.05000000074505806,-0.0024999999441206455],"type":"VEC3"},{"bufferView":1,"byteOffset":732144,"componentType":5126,"count":186,"max":[1,1,0.9993915557861328],"min":[-0.9993915557861328,-1,-0.9993915557861328],"type":"VEC3"},{"bufferView":2,"byteOffset":486608,"componentType":5126,"count":186,"max":[0.9993916153907776,0,1,1],"min":[-1,0,-0.9993916153907776,-1],"type":"VEC4"},{"bufferView":0,"byteOffset":605928,"componentType":5125,"count":540,"max":[185],"min":[0],"type":"SCALAR"},{"bufferView":1,"byteOffset":734376,"componentType":5126,"count":18798,"max":[0.1234700009226799,0.029500000178813934,0.12348999828100204],"min":[-0.12342000007629395,0,-0.12349999696016312],"type":"VEC3"},{"bufferView":1,"byteOffset":959952,"componentType":5126,"count":18798,"max":[0.999963104724884,1,0.9999786019325256],"min":[-0.9999920725822449,-1,-0.9999999403953552],"type":"VEC3"},{"bufferView":2,"byteOffset":489584,"componentType":5126,"count":18798,"max":[1,0.21472811698913574,1,1],"min":[-1,-0.213069349527359,-1,-1],"type":"VEC4"},{"bufferView":0,"byteOffset":608088,"componentType":5125,"count":77304,"max":[18797],"min":[0],"type":"SCALAR"},{"bufferView":3,"componentType":5126,"count":100,"max":[4.166669845581055],"min":[0.041669998317956924],"type":"SCALAR"},{"bufferView":5,"componentType":5126,"count":100,"max":[0,0,0.9996600151062012,1],"min":[0,0,-0.9996600151062012,0.026019999757409096],"type":"VEC4"},{"bufferView":3,"byteOffset":400,"componentType":5126,"count":94,"max":[4.166669845581055],"min":[0.041669998317956924],"type":"SCALAR"},{"bufferView":4,"componentType":5126,"count":94,"max":[0,0.004029999952763319,0],"min":[-0.008019999600946903,-0.004029999952763319,0],"type":"VEC3"},{"bufferView":3,"byteOffset":776,"componentType":5126,"count":100,"max":[4.166669845581055],"min":[0.041669998317956924],"type":"SCALAR"},{"bufferView":5,"byteOffset":1600,"componentType":5126,"count":100,"max":[0.7071099877357483,0.7068700194358826,0.7068700194358826,0.7071099877357483],"min":[0.018400000408291817,-0.7068700194358826,-0.7068700194358826,0.018400000408291817],"type":"VEC4"},{"bufferView":3,"byteOffset":1176,"componentType":5126,"count":94,"max":[4.166669845581055],"min":[0.041669998317956924],"type":"SCALAR"},{"bufferView":4,"byteOffset":1128,"componentType":5126,"count":94,"max":[0,0.004029999952763319,0],"min":[-0.008019999600946903,-0.004029999952763319,0],"type":"VEC3"},{"bufferView":3,"byteOffset":1552,"componentType":5126,"count":100,"max":[4.166669845581055],"min":[0.041669998317956924],"type":"SCALAR"},{"bufferView":5,"byteOffset":3200,"componentType":5126,"count":100,"max":[0.7071099877357483,0.7068700194358826,0.7068700194358826,0.7071099877357483],"min":[0.018400000408291817,-0.7068700194358826,-0.7068700194358826,0.018400000408291817],"type":"VEC4"},{"bufferView":3,"byteOffset":1952,"componentType":5126,"count":100,"max":[4.166669845581055],"min":[0.041669998317956924],"type":"SCALAR"},{"bufferView":5,"byteOffset":4800,"componentType":5126,"count":100,"max":[1,0,0,1],"min":[-0.9915400147438049,0,0,-0.008220000192523003],"type":"VEC4"},{"bufferView":3,"byteOffset":2352,"componentType":5126,"count":100,"max":[4.166669845581055],"min":[0.041669998317956924],"type":"SCALAR"},{"bufferView":5,"byteOffset":6400,"componentType":5126,"count":100,"max":[0.9993299841880798,0,0,0.9998700022697449],"min":[-0.9998700022697449,0,0,0.016349999234080315],"type":"VEC4"},{"bufferView":3,"byteOffset":2752,"componentType":5126,"count":100,"max":[4.166669845581055],"min":[0.041669998317956924],"type":"SCALAR"},{"bufferView":5,"byteOffset":8000,"componentType":5126,"count":100,"max":[0.9993299841880798,0,0,0.9998700022697449],"min":[-0.9998700022697449,0,0,0.016349999234080315],"type":"VEC4"}],"animations":[{"channels":[{"sampler":0,"target":{"node":10,"path":"rotation"}},{"sampler":1,"target":{"node":11,"path":"translation"}},{"sampler":2,"target":{"node":11,"path":"rotation"}},{"sampler":3,"target":{"node":8,"path":"translation"}},{"sampler":4,"target":{"node":8,"path":"rotation"}},{"sampler":5,"target":{"node":7,"path":"rotation"}},{"sampler":6,"target":{"node":5,"path":"rotation"}},{"sampler":7,"target":{"node":3,"path":"rotation"}}],"name":"Take 01","samplers":[{"input":16,"interpolation":"LINEAR","output":17},{"input":18,"interpolation":"LINEAR","output":19},{"input":20,"interpolation":"LINEAR","output":21},{"input":22,"interpolation":"LINEAR","output":23},{"input":24,"interpolation":"LINEAR","output":25},{"input":26,"interpolation":"LINEAR","output":27},{"input":28,"interpolation":"LINEAR","output":29},{"input":30,"interpolation":"LINEAR","output":31}]}],"asset":{"extras":{"author":"C. Yamahata (https://sketchfab.com/cyamahat)","license":"CC-BY-4.0 (http://creativecommons.org/licenses/by/4.0/)","source":"https://sketchfab.com/models/6592b808326541dd8b887bcf3da44619","title":"Hypoid Gear"},"generator":"Sketchfab-3.18.5","version":"2.0"},"bufferViews":[{"buffer":0,"byteLength":917304,"byteOffset":0,"name":"floatBufferViews","target":34963},{"buffer":0,"byteLength":1185528,"byteOffset":917304,"byteStride":12,"name":"floatBufferViews","target":34962},{"buffer":0,"byteLength":790352,"byteOffset":2102832,"byteStride":16,"name":"floatBufferViews","target":34962},{"buffer":0,"byteLength":3152,"byteOffset":2893184,"name":"floatBufferViews"},{"buffer":0,"byteLength":2256,"byteOffset":2896336,"byteStride":12,"name":"floatBufferViews"},{"buffer":0,"byteLength":9600,"byteOffset":2898592,"byteStride":16,"name":"floatBufferViews"}],"buffers":[{"byteLength":2908192,"uri":"data:application/octet-stream;base64,"}],"materials":[{"doubleSided":false,"emissiveFactor":[0,0,0],"name":"mtl_2","pbrMetallicRoughness":{"baseColorFactor":[0.6862745285,0.5607842803,0.5607842803,1],"metallicFactor":0,"roughnessFactor":0.6}},{"alphaMode":"BLEND","doubleSided":false,"emissiveFactor":[0,0,0],"name":"axis","pbrMetallicRoughness":{"baseColorFactor":[0.5607842803,0.6862745285,0.5607842803,0.15],"metallicFactor":0,"roughnessFactor":0.6}},{"doubleSided":false,"emissiveFactor":[0,0,0],"name":"mtl_1","pbrMetallicRoughness":{"baseColorFactor":[0.8823528886,0.8823528886,0.8823528886,1],"metallicFactor":0,"roughnessFactor":0.6}}],"meshes":[{"name":"axis1.001_0","primitives":[{"attributes":{"NORMAL":1,"POSITION":0,"TANGENT":2},"indices":3,"material":1,"mode":4}]},{"name":"pinion_0","primitives":[{"attributes":{"NORMAL":5,"POSITION":4,"TANGENT":6},"indices":7,"material":2,"mode":4}]},{"name":"axis2.001_0","primitives":[{"attributes":{"NORMAL":9,"POSITION":8,"TANGENT":10},"indices":11,"material":1,"mode":4}]},{"name":"large gear_0","primitives":[{"attributes":{"NORMAL":13,"POSITION":12,"TANGENT":14},"indices":15,"material":0,"mode":4}]}],"nodes":[{"children":[1],"name":"RootNode (gltf orientation matrix)","rotation":[-0.7071067811865475,0,0,0.7071067811865476]},{"children":[2],"name":"RootNode (model correction matrix)"},{"children":[3,5,7,8,10,11],"name":"Root"},{"children":[4],"name":"axis1.001","rotation":[0.7071067690849304,0,0,0.7071067690849304],"scale":[50,50,50],"translation":[5.957009792327881,-1.377869963645935,2.4151599407196045]},{"mesh":0,"name":"axis1.001_0"},{"children":[6],"name":"pinion","rotation":[0.7071067690849304,0,0,0.7071067690849304],"scale":[50,50,50],"translation":[5.957009792327881,-1.377869963645935,2.4151599407196045]},{"mesh":1,"name":"pinion_0"},{"name":"axis1","translation":[5.957009792327881,-1.377869963645935,2.4151599407196045]},{"children":[9],"name":"axis2.001","rotation":[0.7071067690849304,0,0,0.7071067690849304],"scale":[50,50,50]},{"mesh":2,"name":"axis2.001_0"},{"name":"axis2","translation":[-0.004029999952763319,0,0]},{"children":[12],"name":"large gear","rotation":[0.7071067690849304,0,0,0.7071067690849304],"scale":[50,50,50]},{"mesh":3,"name":"large gear_0"}],"scene":0,"scenes":[{"name":"OSG_Scene","nodes":[0]}]}